<svg width="70" height="35" viewBox="0 0 70 35" fill="none" xmlns="http://www.w3.org/2000/svg">
<path d="M4.25128 23.9288C4.25129 25.0594 3.80381 26.1439 3.00692 26.9446C2.21003 27.7454 1.12873 28.197 0 28.2005V31.9133C1.04504 31.9115 2.07951 31.7036 3.04433 31.3014C4.00916 30.8992 4.88545 30.3106 5.62318 29.5692C6.3609 28.8277 6.94561 27.948 7.34391 26.9802C7.74222 26.0125 7.94633 24.9756 7.94458 23.9288V10.089C6.64743 10.6505 5.41007 11.3416 4.25128 12.1517V23.9288ZM62.0554 8.05297C60.9857 8.00912 59.9181 8.18231 58.9169 8.56213C57.9156 8.94196 57.0014 9.52058 56.229 10.2632C55.4566 11.0059 54.842 11.8973 54.4222 12.8838C54.0024 13.8704 53.786 14.9318 53.786 16.0042C53.786 17.0766 54.0024 18.138 54.4222 19.1245C54.842 20.1111 55.4566 21.0025 56.229 21.7451C57.0014 22.4878 57.9156 23.0664 58.9169 23.4462C59.9181 23.8261 60.9857 23.9993 62.0554 23.9554H63.7161V20.2559H62.0554C61.2146 20.2559 60.3926 20.0062 59.6935 19.5383C58.9944 19.0703 58.4495 18.4053 58.1277 17.6271C57.806 16.849 57.7218 15.9928 57.8858 15.1668C58.0499 14.3407 58.4548 13.5819 59.0493 12.9864C59.6439 12.3908 60.4014 11.9853 61.226 11.821C62.0507 11.6566 62.9055 11.741 63.6823 12.0633C64.4591 12.3856 65.1231 12.9314 65.5902 13.6317C66.0574 14.332 66.3067 15.1553 66.3067 15.9975V23.9554H70V15.9975C70 14.9531 69.7944 13.9189 69.395 12.9542C68.9956 11.9895 68.4102 11.1131 67.6723 10.3752C66.9344 9.63727 66.0585 9.05236 65.0947 8.65389C64.1309 8.25542 63.0981 8.05122 62.0554 8.05297ZM36.933 8.05297C35.4311 8.05029 33.9601 8.47986 32.695 9.29056V0.0950928H29.0017V23.9554H32.695V15.9975C32.7557 14.911 33.2294 13.889 34.0187 13.1414C34.8081 12.3937 35.8533 11.9771 36.9396 11.9771C38.026 11.9771 39.0712 12.3937 39.8606 13.1414C40.6499 13.889 41.1236 14.911 41.1843 15.9975V23.9554H44.8776V15.9975C44.8776 14.9531 44.672 13.9189 44.2726 12.9542C43.8732 11.9895 43.2878 11.1131 42.5499 10.3752C41.812 9.63727 40.9361 9.05236 39.9723 8.65389C39.0085 8.25542 37.9757 8.05122 36.933 8.05297V8.05297ZM47.6542 23.9554H51.3475V12.1517C50.187 11.3443 48.9499 10.6535 47.6542 10.089V23.9554ZM18.2805 8.05297C17.2108 8.00912 16.1432 8.18231 15.142 8.56213C14.1407 8.94196 13.2264 9.52058 12.4541 10.2632C11.6817 11.0059 11.0671 11.8973 10.6473 12.8838C10.2275 13.8704 10.0111 14.9318 10.0111 16.0042C10.0111 17.0766 10.2275 18.138 10.6473 19.1245C11.0671 20.1111 11.6817 21.0025 12.4541 21.7451C13.2264 22.4878 14.1407 23.0664 15.142 23.4462C16.1432 23.8261 17.2108 23.9993 18.2805 23.9554H19.9412V20.2559H18.2805C17.4397 20.2559 16.6177 20.0062 15.9186 19.5383C15.2195 19.0703 14.6746 18.4053 14.3528 17.6271C14.0311 16.849 13.9469 15.9928 14.1109 15.1668C14.275 14.3407 14.6798 13.5819 15.2744 12.9864C15.869 12.3908 16.6265 11.9853 17.4511 11.821C18.2758 11.6566 19.1306 11.741 19.9074 12.0633C20.6842 12.3856 21.3482 12.9314 21.8153 13.6317C22.2825 14.332 22.5318 15.1553 22.5318 15.9975V23.9554H26.2251V15.9975C26.2251 14.9531 26.0195 13.9189 25.6201 12.9542C25.2207 11.9895 24.6353 11.1131 23.8974 10.3752C23.1595 9.63727 22.2836 9.05236 21.3198 8.65389C20.356 8.25542 19.3232 8.05122 18.2805 8.05297V8.05297Z" fill="#1D1D1B"/>
<path fill-rule="evenodd" clip-rule="evenodd" d="M7.93567 6.70625V4.33752H4.24237V8.58261C5.41588 7.8494 6.65179 7.2215 7.93567 6.70625ZM47.6455 6.70625V4.33752H51.3388V8.58261C50.1623 7.85464 48.9269 7.22698 47.6455 6.70625Z" fill="#00A0E3"/>
<path d="M51.035 28.8646H49.1275V34.224H47.9506V28.8646H46.0431V27.8977H51.035V28.8646Z" fill="#00A0E3"/>
<path d="M53.7747 30.9077C53.9964 30.9077 54.1889 30.88 54.3522 30.8246C54.5185 30.7692 54.6541 30.6933 54.7591 30.5971C54.867 30.4979 54.9472 30.3812 54.9997 30.2471C55.0522 30.1129 55.0785 29.9656 55.0785 29.8052C55.0785 29.4844 54.972 29.2379 54.7591 29.0658C54.5491 28.8937 54.2268 28.8077 53.7922 28.8077H53.0397V30.9077H53.7747ZM56.8022 34.224H55.7391C55.5378 34.224 55.392 34.1452 55.3016 33.9877L53.9716 31.9621C53.922 31.8862 53.8666 31.8323 53.8053 31.8002C53.747 31.7681 53.6595 31.7521 53.5428 31.7521H53.0397V34.224H51.8628V27.8977H53.7922C54.221 27.8977 54.5885 27.9429 54.8947 28.0333C55.2039 28.1208 55.4562 28.2448 55.6516 28.4052C55.8499 28.5656 55.9957 28.7581 56.0891 28.9827C56.1824 29.2044 56.2291 29.4494 56.2291 29.7177C56.2291 29.9306 56.197 30.1319 56.1328 30.3215C56.0716 30.511 55.9812 30.6831 55.8616 30.8377C55.7449 30.9923 55.5991 31.1279 55.4241 31.2446C55.252 31.3612 55.0551 31.4531 54.8335 31.5202C54.9093 31.564 54.9793 31.6165 55.0435 31.6777C55.1076 31.736 55.166 31.806 55.2185 31.8877L56.8022 34.224Z" fill="#00A0E3"/>
<path d="M58.6666 34.224H57.4854V27.8977H58.6666V34.224Z" fill="#00A0E3"/>
<path d="M63.4255 31.8352L62.6555 29.7308C62.6176 29.6375 62.5783 29.5267 62.5374 29.3983C62.4966 29.27 62.4558 29.1315 62.4149 28.9827C62.377 29.1315 62.3376 29.2715 62.2968 29.4027C62.256 29.531 62.2166 29.6433 62.1787 29.7396L61.413 31.8352H63.4255ZM65.5037 34.224H64.5937C64.4916 34.224 64.4085 34.1992 64.3443 34.1496C64.2801 34.0971 64.232 34.0329 64.1999 33.9571L63.7274 32.6665H61.1068L60.6343 33.9571C60.611 34.0242 60.5658 34.0854 60.4987 34.1408C60.4316 34.1962 60.3485 34.224 60.2493 34.224H59.3305L61.8199 27.8977H63.0187L65.5037 34.224Z" fill="#00A0E3"/>
<path d="M69.8641 33.2527V34.224H66.1585V27.8977H67.3354V33.2527H69.8641Z" fill="#00A0E3"/>
</svg>
